<svg width="20" height="20" viewBox="0 0 20 20" fill="none" xmlns="http://www.w3.org/2000/svg">
<path d="M5 15H15V5H5V15ZM6.66667 6.66667H13.3333V13.3333H6.66667V6.66667Z" fill="#ADBAD0"/>
<path d="M15 0.833313H13.3333V3.33331H15V0.833313Z" fill="#ADBAD0"/>
<path d="M6.66667 0.833313H5V3.33331H6.66667V0.833313Z" fill="#ADBAD0"/>
<path d="M15 16.6666H13.3333V19.1666H15V16.6666Z" fill="#ADBAD0"/>
<path d="M6.66667 16.6666H5V19.1666H6.66667V16.6666Z" fill="#ADBAD0"/>
<path d="M19.1666 5H16.6666V6.66667H19.1666V5Z" fill="#ADBAD0"/>
<path d="M19.1666 13.3333H16.6666V15H19.1666V13.3333Z" fill="#ADBAD0"/>
<path d="M3.33331 5H0.833313V6.66667H3.33331V5Z" fill="#ADBAD0"/>
<path d="M3.33331 13.3333H0.833313V15H3.33331V13.3333Z" fill="#ADBAD0"/>
</svg>
