<svg width="20" height="20" viewBox="0 0 20 20" fill="none" xmlns="http://www.w3.org/2000/svg">
<g clip-path="url(#clip0)">
<path d="M17.5 15.0008H5.83333C5.3725 15.0008 5 14.6275 5 14.1675V2.50081C5 2.04081 5.3725 1.66748 5.83333 1.66748H17.5C17.9608 1.66748 18.3333 2.04081 18.3333 2.50081V14.1675C18.3333 14.6275 17.9608 15.0008 17.5 15.0008ZM6.66667 13.3341H16.6667V3.33415H6.66667V13.3341Z" fill="#ADBAD0"/>
<path d="M15 18.3341H2.50002C2.03919 18.3341 1.66669 17.9608 1.66669 17.5008V5.00079H3.33335V16.6675H15V18.3341Z" fill="#ADBAD0"/>
<path d="M9.16667 7.50081C10.0871 7.50081 10.8333 6.75462 10.8333 5.83415C10.8333 4.91367 10.0871 4.16748 9.16667 4.16748C8.24619 4.16748 7.5 4.91367 7.5 5.83415C7.5 6.75462 8.24619 7.50081 9.16667 7.50081Z" fill="#ADBAD0"/>
<path d="M13.3333 7.50079L11.1767 10.7358L10 9.16746L7.5 12.5008H15.8333L13.3333 7.50079Z" fill="#ADBAD0"/>
</g>
<defs>
<clipPath id="clip0">
<rect width="20" height="20" fill="white"/>
</clipPath>
</defs>
</svg>
