<svg width="16" height="16" viewBox="0 0 16 16" fill="none" xmlns="http://www.w3.org/2000/svg">
<path d="M15.2113 7.61665C15.0886 7.44131 12.148 3.33331 7.99996 3.33331C3.85196 3.33331 0.911293 7.44131 0.788626 7.61665C0.625959 7.84665 0.625959 8.15398 0.788626 8.38398C0.911293 8.55865 3.85196 12.6666 7.99996 12.6666C12.148 12.6666 15.0886 8.55865 15.2113 8.38398C15.374 8.15331 15.374 7.84665 15.2113 7.61665ZM7.99996 11.3333C5.22263 11.3333 2.96729 8.94998 2.17929 7.99931C2.96529 7.04865 5.21329 4.66665 7.99996 4.66665C10.7773 4.66665 13.0326 7.05065 13.8206 8.00065C13.0346 8.95198 10.7866 11.3333 7.99996 11.3333Z" fill="#4A5D85"/>
<path d="M7.99992 5.33331C6.52925 5.33331 5.33325 6.52998 5.33325 7.99998C5.33325 9.47065 6.52925 10.6666 7.99992 10.6666C9.47059 10.6666 10.6666 9.47065 10.6666 7.99998C10.6666 6.52998 9.47059 5.33331 7.99992 5.33331Z" fill="#4A5D85"/>
</svg>
