<svg width="20" height="20" viewBox="0 0 20 20" fill="none" xmlns="http://www.w3.org/2000/svg">
<g clip-path="url(#clip0)">
<path d="M10 10.4442C9.88419 10.4442 9.76919 10.42 9.66169 10.3725L2.16169 7.03916C1.86002 6.90582 1.66669 6.60749 1.66669 6.27749C1.66669 5.94749 1.86002 5.64999 2.16169 5.51666L9.66169 2.18333C9.87752 2.08749 10.1234 2.08749 10.3392 2.18333L17.8392 5.51666C18.14 5.64999 18.3334 5.94833 18.3334 6.27749C18.3334 6.60666 18.14 6.90499 17.8384 7.03916L10.3384 10.3725C10.2309 10.42 10.1159 10.4442 10 10.4442ZM4.55252 6.27749L10 8.69916L15.4475 6.27749L10 3.85583L4.55252 6.27749Z" fill="#ADBAD0"/>
<path d="M18.3334 8.24335L9.98502 12.0367L1.66669 8.57001V10.375L9.67919 13.715C9.78169 13.7592 9.89085 13.7775 10 13.7775C10.1175 13.7775 10.235 13.7533 10.3442 13.705L18.3334 10.0742V8.24335Z" fill="#ADBAD0"/>
<path d="M18.3334 11.5767L9.98502 15.37L1.66669 11.9033V13.7083L9.67919 17.0483C9.78169 17.0925 9.89085 17.1108 10 17.1108C10.1175 17.1108 10.235 17.0867 10.3442 17.0383L18.3334 13.4075V11.5767Z" fill="#ADBAD0"/>
</g>
<defs>
<clipPath id="clip0">
<rect width="20" height="20" fill="white"/>
</clipPath>
</defs>
</svg>
