<svg width="16" height="16" viewBox="0 0 16 16" fill="none" xmlns="http://www.w3.org/2000/svg">
<path d="M15.218 7.63734C15.154 7.53867 14.2033 6.116 12.484 4.98467L15.1307 2.33734L14.188 1.39467L1.20734 14.376L2.15 15.3187L5.58067 11.888C6.30934 12.1153 7.11267 12.2573 7.99267 12.2573C12.5287 12.2573 15.104 8.534 15.2113 8.37467L15.46 8.00934L15.218 7.63734ZM7.992 10.924C7.53067 10.924 7.09534 10.872 6.68 10.788L7.95134 9.51667C8.11934 9.56267 8.29467 9.59067 8.478 9.59067C9.582 9.59067 10.478 8.696 10.478 7.59067C10.478 7.408 10.45 7.232 10.404 7.064L11.5113 5.95667C12.6393 6.64467 13.4307 7.50734 13.8207 7.99134C13.096 8.85134 11.0327 10.924 7.992 10.924Z" fill="#ADBAD0"/>
<path d="M3.06933 10.628L4.038 9.65934C3.144 9.06134 2.50267 8.39333 2.16333 7.99067C2.87667 7.1 4.93267 4.924 7.99267 4.924C8.24467 4.924 8.48734 4.94333 8.72534 4.972L9.86934 3.828C9.28667 3.682 8.664 3.59067 7.99267 3.59067C3.44867 3.59067 0.874001 7.472 0.767334 7.63733L0.526001 8.00933L0.774668 8.37467C0.832001 8.46067 1.62667 9.60467 3.06933 10.628Z" fill="#ADBAD0"/>
</svg>
