<svg width="16" height="16" viewBox="0 0 16 16" fill="none" xmlns="http://www.w3.org/2000/svg">
<path fill-rule="evenodd" clip-rule="evenodd" d="M8 2C9.7648 2 11.2 3.518 11.2 5.38462C11.6424 5.38462 12 5.76369 12 6.23077V12.1538C12 12.6218 11.6424 13 11.2 13H4.8C4.3576 13 4 12.6218 4 12.1538V6.23077C4 5.76285 4.3576 5.38462 4.8 5.38462C4.8 3.518 6.2352 2 8 2ZM9.6 5.38462C9.6 4.45215 8.8824 3.69231 8 3.69231C7.1176 3.69231 6.4 4.45215 6.4 5.38462H9.6ZM8 10C8.55228 10 9 9.55228 9 9C9 8.44772 8.55228 8 8 8C7.44772 8 7 8.44772 7 9C7 9.55228 7.44772 10 8 10Z" fill="#4A5D85"/>
</svg>
